<mxfile host="Electron" agent="Mozilla/5.0 (Windows NT 10.0; Win64; x64) AppleWebKit/537.36 (KHTML, like Gecko) draw.io/27.0.9 Chrome/134.0.6998.205 Electron/35.4.0 Safari/537.36" version="27.0.9">
  <diagram name="Page-1" id="-gEepAxFV_Err3ZZ_LEo">
    <mxGraphModel dx="1426" dy="841" grid="1" gridSize="10" guides="1" tooltips="1" connect="1" arrows="1" fold="1" page="1" pageScale="1" pageWidth="850" pageHeight="1100" math="0" shadow="0">
      <root>
        <mxCell id="0" />
        <mxCell id="1" parent="0" />
        <mxCell id="COu3uCPRYwjQC4V7EN4S-1" value="High Level Architecture" style="text;html=1;align=center;verticalAlign=middle;whiteSpace=wrap;rounded=0;fontStyle=1;fontSize=26;" vertex="1" parent="1">
          <mxGeometry x="205" y="40" width="440" height="30" as="geometry" />
        </mxCell>
        <mxCell id="COu3uCPRYwjQC4V7EN4S-3" value="" style="rounded=0;whiteSpace=wrap;html=1;fillColor=none;dashed=1;" vertex="1" parent="1">
          <mxGeometry x="22" y="160" width="178" height="410" as="geometry" />
        </mxCell>
        <mxCell id="COu3uCPRYwjQC4V7EN4S-4" value="Source" style="rounded=0;whiteSpace=wrap;html=1;fontSize=22;strokeColor=none;" vertex="1" parent="1">
          <mxGeometry x="36" y="130" width="120" height="60" as="geometry" />
        </mxCell>
        <mxCell id="COu3uCPRYwjQC4V7EN4S-5" value="" style="rounded=0;whiteSpace=wrap;html=1;fillColor=none;dashed=1;" vertex="1" parent="1">
          <mxGeometry x="223" y="160" width="407" height="410" as="geometry" />
        </mxCell>
        <mxCell id="COu3uCPRYwjQC4V7EN4S-6" value="Data Warehouse" style="rounded=0;whiteSpace=wrap;html=1;fontSize=22;strokeColor=none;" vertex="1" parent="1">
          <mxGeometry x="320" y="130" width="230" height="60" as="geometry" />
        </mxCell>
        <mxCell id="COu3uCPRYwjQC4V7EN4S-7" value="" style="rounded=0;whiteSpace=wrap;html=1;fillColor=none;dashed=1;" vertex="1" parent="1">
          <mxGeometry x="648" y="160" width="180" height="410" as="geometry" />
        </mxCell>
        <mxCell id="COu3uCPRYwjQC4V7EN4S-8" value="Consumer" style="rounded=0;whiteSpace=wrap;html=1;fontSize=22;strokeColor=none;" vertex="1" parent="1">
          <mxGeometry x="688" y="130" width="120" height="60" as="geometry" />
        </mxCell>
        <mxCell id="COu3uCPRYwjQC4V7EN4S-9" value="Bronze Layer" style="rounded=0;whiteSpace=wrap;html=1;fontSize=12;fillColor=#ffe6cc;strokeColor=#d79b00;" vertex="1" parent="1">
          <mxGeometry x="236" y="200" width="120" height="30" as="geometry" />
        </mxCell>
        <mxCell id="COu3uCPRYwjQC4V7EN4S-10" value="Silver Layer" style="rounded=0;whiteSpace=wrap;html=1;fontSize=12;fillColor=#f5f5f5;strokeColor=#666666;gradientColor=none;" vertex="1" parent="1">
          <mxGeometry x="366" y="200" width="120" height="30" as="geometry" />
        </mxCell>
        <mxCell id="COu3uCPRYwjQC4V7EN4S-11" value="Gold Layer" style="rounded=0;whiteSpace=wrap;html=1;fontSize=12;fillColor=#fff2cc;strokeColor=#d6b656;gradientColor=none;" vertex="1" parent="1">
          <mxGeometry x="496" y="200" width="120" height="30" as="geometry" />
        </mxCell>
        <mxCell id="COu3uCPRYwjQC4V7EN4S-12" value="" style="rounded=0;whiteSpace=wrap;html=1;fontSize=12;fillColor=none;strokeColor=#d79b00;" vertex="1" parent="1">
          <mxGeometry x="236" y="240" width="120" height="310" as="geometry" />
        </mxCell>
        <mxCell id="COu3uCPRYwjQC4V7EN4S-13" value="" style="rounded=0;whiteSpace=wrap;html=1;fontSize=12;fillColor=none;strokeColor=#666666;gradientColor=#b3b3b3;" vertex="1" parent="1">
          <mxGeometry x="366.5" y="240" width="120" height="310" as="geometry" />
        </mxCell>
        <mxCell id="COu3uCPRYwjQC4V7EN4S-14" value="" style="rounded=0;whiteSpace=wrap;html=1;fontSize=12;fillColor=none;strokeColor=#d6b656;gradientColor=none;" vertex="1" parent="1">
          <mxGeometry x="496" y="240" width="120" height="310" as="geometry" />
        </mxCell>
        <mxCell id="COu3uCPRYwjQC4V7EN4S-17" value="" style="sketch=0;pointerEvents=1;shadow=0;dashed=0;html=1;strokeColor=#d6b656;labelPosition=center;verticalLabelPosition=bottom;verticalAlign=top;outlineConnect=0;align=center;shape=mxgraph.office.concepts.folder;fillColor=#fff2cc;gradientColor=#ffd966;" vertex="1" parent="1">
          <mxGeometry x="71" y="260" width="50" height="45" as="geometry" />
        </mxCell>
        <mxCell id="COu3uCPRYwjQC4V7EN4S-18" value="" style="sketch=0;pointerEvents=1;shadow=0;dashed=0;html=1;strokeColor=#6c8ebf;fillColor=#dae8fc;labelPosition=center;verticalLabelPosition=bottom;verticalAlign=top;outlineConnect=0;align=center;shape=mxgraph.office.concepts.document;gradientColor=#7ea6e0;" vertex="1" parent="1">
          <mxGeometry x="100" y="290" width="30" height="30" as="geometry" />
        </mxCell>
        <mxCell id="COu3uCPRYwjQC4V7EN4S-19" value="&lt;b&gt;CRM&lt;/b&gt;" style="text;html=1;align=center;verticalAlign=middle;whiteSpace=wrap;rounded=0;" vertex="1" parent="1">
          <mxGeometry x="66" y="320" width="60" height="30" as="geometry" />
        </mxCell>
        <mxCell id="COu3uCPRYwjQC4V7EN4S-21" value="" style="sketch=0;pointerEvents=1;shadow=0;dashed=0;html=1;strokeColor=#d6b656;labelPosition=center;verticalLabelPosition=bottom;verticalAlign=top;outlineConnect=0;align=center;shape=mxgraph.office.concepts.folder;fillColor=#fff2cc;gradientColor=#ffd966;" vertex="1" parent="1">
          <mxGeometry x="75" y="364" width="50" height="45" as="geometry" />
        </mxCell>
        <mxCell id="COu3uCPRYwjQC4V7EN4S-22" value="&lt;b&gt;ERP&lt;/b&gt;" style="text;html=1;align=center;verticalAlign=middle;whiteSpace=wrap;rounded=0;" vertex="1" parent="1">
          <mxGeometry x="70" y="424" width="60" height="30" as="geometry" />
        </mxCell>
        <mxCell id="COu3uCPRYwjQC4V7EN4S-23" value="" style="sketch=0;pointerEvents=1;shadow=0;dashed=0;html=1;strokeColor=#6c8ebf;fillColor=#dae8fc;labelPosition=center;verticalLabelPosition=bottom;verticalAlign=top;outlineConnect=0;align=center;shape=mxgraph.office.concepts.document;gradientColor=#7ea6e0;" vertex="1" parent="1">
          <mxGeometry x="100" y="394" width="30" height="30" as="geometry" />
        </mxCell>
        <mxCell id="COu3uCPRYwjQC4V7EN4S-24" value="" style="endArrow=none;html=1;rounded=0;" edge="1" parent="1">
          <mxGeometry width="50" height="50" relative="1" as="geometry">
            <mxPoint x="50" y="460" as="sourcePoint" />
            <mxPoint x="150" y="460" as="targetPoint" />
          </mxGeometry>
        </mxCell>
        <mxCell id="COu3uCPRYwjQC4V7EN4S-25" value="&lt;b&gt;Object Type:&lt;/b&gt; CSV Files" style="text;html=1;align=left;verticalAlign=middle;whiteSpace=wrap;rounded=0;" vertex="1" parent="1">
          <mxGeometry x="36" y="470" width="140" height="30" as="geometry" />
        </mxCell>
        <mxCell id="COu3uCPRYwjQC4V7EN4S-26" value="&lt;b&gt;Interface:&lt;/b&gt;&amp;nbsp;Files in Folder" style="text;html=1;align=left;verticalAlign=middle;whiteSpace=wrap;rounded=0;" vertex="1" parent="1">
          <mxGeometry x="36" y="500" width="140" height="30" as="geometry" />
        </mxCell>
        <mxCell id="COu3uCPRYwjQC4V7EN4S-30" value="" style="sketch=0;shadow=0;dashed=0;html=1;strokeColor=#b46504;fillColor=#fad7ac;labelPosition=center;verticalLabelPosition=bottom;verticalAlign=top;outlineConnect=0;align=center;shape=mxgraph.office.databases.database;" vertex="1" parent="1">
          <mxGeometry x="266" y="315" width="60" height="100" as="geometry" />
        </mxCell>
        <mxCell id="COu3uCPRYwjQC4V7EN4S-31" value="" style="sketch=0;shadow=0;dashed=0;html=1;strokeColor=#0e8088;fillColor=#b0e3e6;labelPosition=center;verticalLabelPosition=bottom;verticalAlign=top;outlineConnect=0;align=center;shape=mxgraph.office.databases.database;" vertex="1" parent="1">
          <mxGeometry x="396.5" y="315" width="60" height="100" as="geometry" />
        </mxCell>
        <mxCell id="COu3uCPRYwjQC4V7EN4S-32" value="" style="sketch=0;shadow=0;dashed=0;html=1;strokeColor=#ae4132;fillColor=#fad9d5;labelPosition=center;verticalLabelPosition=bottom;verticalAlign=top;outlineConnect=0;align=center;shape=mxgraph.office.databases.database;" vertex="1" parent="1">
          <mxGeometry x="526" y="315" width="60" height="100" as="geometry" />
        </mxCell>
        <mxCell id="COu3uCPRYwjQC4V7EN4S-33" value="" style="shape=flexArrow;endArrow=classic;html=1;rounded=0;fillColor=#b0e3e6;strokeColor=#0e8088;" edge="1" parent="1">
          <mxGeometry width="50" height="50" relative="1" as="geometry">
            <mxPoint x="190" y="370" as="sourcePoint" />
            <mxPoint x="250" y="370" as="targetPoint" />
          </mxGeometry>
        </mxCell>
        <mxCell id="COu3uCPRYwjQC4V7EN4S-34" value="" style="shape=flexArrow;endArrow=classic;html=1;rounded=0;fillColor=#b0e3e6;strokeColor=#0e8088;" edge="1" parent="1">
          <mxGeometry width="50" height="50" relative="1" as="geometry">
            <mxPoint x="331" y="370" as="sourcePoint" />
            <mxPoint x="391" y="370" as="targetPoint" />
          </mxGeometry>
        </mxCell>
        <mxCell id="COu3uCPRYwjQC4V7EN4S-35" value="" style="shape=flexArrow;endArrow=classic;html=1;rounded=0;fillColor=#b0e3e6;strokeColor=#0e8088;" edge="1" parent="1">
          <mxGeometry width="50" height="50" relative="1" as="geometry">
            <mxPoint x="462" y="370" as="sourcePoint" />
            <mxPoint x="522" y="370" as="targetPoint" />
          </mxGeometry>
        </mxCell>
        <mxCell id="COu3uCPRYwjQC4V7EN4S-36" value="" style="shape=flexArrow;endArrow=classic;html=1;rounded=0;fillColor=#b0e3e6;strokeColor=#0e8088;" edge="1" parent="1">
          <mxGeometry width="50" height="50" relative="1" as="geometry">
            <mxPoint x="610" y="370" as="sourcePoint" />
            <mxPoint x="670" y="370" as="targetPoint" />
          </mxGeometry>
        </mxCell>
        <mxCell id="COu3uCPRYwjQC4V7EN4S-37" value="Raw Data" style="text;html=1;align=center;verticalAlign=middle;whiteSpace=wrap;rounded=0;" vertex="1" parent="1">
          <mxGeometry x="266" y="424" width="60" height="30" as="geometry" />
        </mxCell>
        <mxCell id="COu3uCPRYwjQC4V7EN4S-38" value="Cleaned, Standardized Data" style="text;html=1;align=center;verticalAlign=middle;whiteSpace=wrap;rounded=0;" vertex="1" parent="1">
          <mxGeometry x="396.5" y="424" width="73.5" height="30" as="geometry" />
        </mxCell>
        <mxCell id="COu3uCPRYwjQC4V7EN4S-39" value="Business-Ready Data" style="text;html=1;align=center;verticalAlign=middle;whiteSpace=wrap;rounded=0;" vertex="1" parent="1">
          <mxGeometry x="526" y="424" width="60" height="30" as="geometry" />
        </mxCell>
        <mxCell id="COu3uCPRYwjQC4V7EN4S-40" value="" style="endArrow=none;html=1;rounded=0;" edge="1" parent="1">
          <mxGeometry width="50" height="50" relative="1" as="geometry">
            <mxPoint x="246" y="470" as="sourcePoint" />
            <mxPoint x="346" y="470" as="targetPoint" />
          </mxGeometry>
        </mxCell>
        <mxCell id="COu3uCPRYwjQC4V7EN4S-41" value="" style="endArrow=none;html=1;rounded=0;" edge="1" parent="1">
          <mxGeometry width="50" height="50" relative="1" as="geometry">
            <mxPoint x="376" y="470" as="sourcePoint" />
            <mxPoint x="476" y="470" as="targetPoint" />
          </mxGeometry>
        </mxCell>
        <mxCell id="COu3uCPRYwjQC4V7EN4S-42" value="" style="endArrow=none;html=1;rounded=0;" edge="1" parent="1">
          <mxGeometry width="50" height="50" relative="1" as="geometry">
            <mxPoint x="506" y="470" as="sourcePoint" />
            <mxPoint x="606" y="470" as="targetPoint" />
          </mxGeometry>
        </mxCell>
        <mxCell id="COu3uCPRYwjQC4V7EN4S-43" value="&lt;h1 style=&quot;margin-top: 0px;&quot;&gt;&lt;span style=&quot;background-color: transparent; color: light-dark(rgb(0, 0, 0), rgb(255, 255, 255)); font-size: 12px;&quot;&gt;Object Type&lt;span style=&quot;font-weight: 400;&quot;&gt;: Tables&lt;/span&gt;&lt;/span&gt;&lt;/h1&gt;&lt;div&gt;&lt;b&gt;Load:&lt;/b&gt;&lt;/div&gt;&lt;div&gt;&lt;ul&gt;&lt;li&gt;Batch Processing&lt;/li&gt;&lt;li&gt;Full load&lt;/li&gt;&lt;li&gt;Truncate &amp;amp; Insert&lt;/li&gt;&lt;/ul&gt;&lt;div&gt;No Tronsformations&lt;/div&gt;&lt;/div&gt;&lt;div&gt;&lt;br&gt;&lt;/div&gt;&lt;div&gt;&lt;b&gt;Data Model:&lt;/b&gt; None (as-is)&lt;/div&gt;" style="text;html=1;whiteSpace=wrap;overflow=hidden;rounded=0;" vertex="1" parent="1">
          <mxGeometry x="196" y="590" width="160" height="200" as="geometry" />
        </mxCell>
        <mxCell id="COu3uCPRYwjQC4V7EN4S-44" value="&lt;h1 style=&quot;margin-top: 0px;&quot;&gt;&lt;span style=&quot;background-color: transparent; color: light-dark(rgb(0, 0, 0), rgb(255, 255, 255)); font-size: 12px;&quot;&gt;Object Type&lt;span style=&quot;font-weight: 400;&quot;&gt;: Tables&lt;/span&gt;&lt;/span&gt;&lt;/h1&gt;&lt;div&gt;&lt;b&gt;Load:&lt;/b&gt;&lt;/div&gt;&lt;div&gt;&lt;ul&gt;&lt;li&gt;Batch Processing&lt;/li&gt;&lt;li&gt;Full load&lt;/li&gt;&lt;li&gt;Truncate &amp;amp; Insert&lt;/li&gt;&lt;/ul&gt;&lt;div&gt;&lt;b&gt;Tronsformations:&lt;/b&gt;&lt;/div&gt;&lt;/div&gt;&lt;div&gt;&lt;ul&gt;&lt;li&gt;Data Cleansing&lt;/li&gt;&lt;li&gt;Data Standarization&lt;/li&gt;&lt;li&gt;Derived Columns&lt;/li&gt;&lt;li&gt;Data Enrichement&lt;/li&gt;&lt;/ul&gt;&lt;/div&gt;&lt;div&gt;&lt;b&gt;Data Model:&lt;/b&gt; None (as-is)&lt;/div&gt;" style="text;html=1;whiteSpace=wrap;overflow=hidden;rounded=0;" vertex="1" parent="1">
          <mxGeometry x="366" y="590" width="160" height="260" as="geometry" />
        </mxCell>
        <mxCell id="COu3uCPRYwjQC4V7EN4S-45" value="&lt;h1 style=&quot;margin-top: 0px;&quot;&gt;&lt;span style=&quot;background-color: transparent; color: light-dark(rgb(0, 0, 0), rgb(255, 255, 255)); font-size: 12px;&quot;&gt;Object Type&lt;span style=&quot;font-weight: 400;&quot;&gt;: Views&lt;/span&gt;&lt;/span&gt;&lt;/h1&gt;&lt;div&gt;&lt;b&gt;No Load:&lt;/b&gt;&lt;/div&gt;&lt;div&gt;&lt;ul&gt;&lt;li&gt;Data Integrations&lt;/li&gt;&lt;li&gt;Aggreations&lt;/li&gt;&lt;li&gt;Business Logics&lt;/li&gt;&lt;/ul&gt;&lt;div&gt;&lt;br&gt;&lt;/div&gt;&lt;/div&gt;&lt;div&gt;&lt;b&gt;Data Model:&lt;/b&gt;&lt;/div&gt;&lt;div&gt;&lt;ul&gt;&lt;li&gt;Star Schema&lt;/li&gt;&lt;li&gt;Flat Table&lt;/li&gt;&lt;li&gt;Aggregated Table&lt;/li&gt;&lt;/ul&gt;&lt;/div&gt;" style="text;html=1;whiteSpace=wrap;overflow=hidden;rounded=0;" vertex="1" parent="1">
          <mxGeometry x="520" y="590" width="160" height="260" as="geometry" />
        </mxCell>
        <mxCell id="COu3uCPRYwjQC4V7EN4S-46" value="" style="endArrow=classic;html=1;rounded=0;" edge="1" parent="1">
          <mxGeometry width="50" height="50" relative="1" as="geometry">
            <mxPoint x="230" y="590" as="sourcePoint" />
            <mxPoint x="280" y="540" as="targetPoint" />
          </mxGeometry>
        </mxCell>
        <mxCell id="COu3uCPRYwjQC4V7EN4S-48" value="" style="endArrow=classic;html=1;rounded=0;" edge="1" parent="1">
          <mxGeometry width="50" height="50" relative="1" as="geometry">
            <mxPoint x="590" y="600" as="sourcePoint" />
            <mxPoint x="560" y="540" as="targetPoint" />
          </mxGeometry>
        </mxCell>
        <mxCell id="COu3uCPRYwjQC4V7EN4S-49" value="" style="endArrow=classic;html=1;rounded=0;" edge="1" parent="1">
          <mxGeometry width="50" height="50" relative="1" as="geometry">
            <mxPoint x="424" y="600" as="sourcePoint" />
            <mxPoint x="424" y="510" as="targetPoint" />
          </mxGeometry>
        </mxCell>
        <mxCell id="COu3uCPRYwjQC4V7EN4S-50" value="" style="sketch=0;pointerEvents=1;shadow=0;dashed=0;html=1;strokeColor=none;fillColor=#505050;labelPosition=center;verticalLabelPosition=bottom;verticalAlign=top;outlineConnect=0;align=center;shape=mxgraph.office.services.powerpoint_automation_services;" vertex="1" parent="1">
          <mxGeometry x="708.5" y="325" width="59" height="49" as="geometry" />
        </mxCell>
        <mxCell id="COu3uCPRYwjQC4V7EN4S-51" value="&lt;b&gt;BI Report&lt;/b&gt;" style="text;html=1;align=center;verticalAlign=middle;whiteSpace=wrap;rounded=0;" vertex="1" parent="1">
          <mxGeometry x="707.5" y="385" width="60" height="30" as="geometry" />
        </mxCell>
      </root>
    </mxGraphModel>
  </diagram>
</mxfile>
